<svg xmlns="http://www.w3.org/2000/svg" width="140" height="140" fill="none"><g fill-rule="evenodd" clip-path="url(#a)" clip-rule="evenodd"><path fill="#DDE4E3" d="M140 70A70 70 0 1 1 0 70a70 70 0 0 1 140 0"/><path fill="#5495CF" d="M41.5 93.3h1a6 6 0 0 1 6 6v18.4a6 6 0 0 1-6 6h-1a6 6 0 0 1-6-6V99.3a6 6 0 0 1 6-6M78.4 82h1a6 6 0 0 1 6 6v29.7a6 6 0 0 1-6 6h-1a6 6 0 0 1-6-6V88a6 6 0 0 1 6-6M96.9 64h1a6 6 0 0 1 6 6v48a6 6 0 0 1-6 6h-1a6 6 0 0 1-6-6V70a6 6 0 0 1 6-6M60 69h1a6 6 0 0 1 6 6v42.6a6 6 0 0 1-6 6h-1a6 6 0 0 1-6-5.9V75.1a6 6 0 0 1 6-6"/><path fill="#91BFE3" d="M101 19a6 6 0 0 0-5 9.4L83.4 48H83a6 6 0 0 0-5.4 3.3l-19-1.8a6 6 0 0 0-11.2 4.3L32.5 69.2A6 6 0 0 0 25 75a6 6 0 1 0 11.1-3L50.4 57a6 6 0 0 0 8.1-3l18.8 1.7A6 6 0 1 0 87.4 50L100 30.9l1.1.1a6 6 0 0 0 0-12"/></g><defs><clipPath id="a"><path fill="#fff" d="M0 0h140v140H0z"/></clipPath></defs></svg>