<?xml version="1.0" encoding="utf-8"?>
<svg viewBox="0 0 500 500" width="500" height="500" xmlns="http://www.w3.org/2000/svg">
  <path fill-rule="evenodd" d="M 339.187 229.891 C 339.187 310.602 251.675 361.047 181.668 320.692 C 149.177 301.962 129.162 267.35 129.162 229.891 C 129.162 149.18 216.671 98.736 286.68 139.091 C 319.171 157.821 339.187 192.432 339.187 229.891" clip-rule="evenodd" style="fill: rgb(203, 204, 169);" transform="matrix(1, 0, 0, 1, 0, 1.4210854715202004e-14)"/>
  <path fill-rule="evenodd" d="M 184.668 276.024 L 184.668 229.891 C 184.914 215.829 196.535 204.628 210.621 204.878 L 281.73 204.878 L 281.73 202.332 C 281.73 191.847 273.179 183.16 262.527 183.16 L 224.573 183.16 C 219.771 175.692 211.227 171.484 202.37 172.226 L 184.668 172.226 C 174.167 172.226 165.466 180.763 165.466 191.398 L 165.466 273.777 C 165.466 278.42 167.716 282.614 171.166 285.011 C 172.367 285.509 173.567 285.759 174.767 285.759 C 180.318 285.759 184.968 281.266 184.968 276.024" clip-rule="evenodd" style="fill: rgb(36, 75, 90);" transform="matrix(1, 0, 0, 1, 0, 1.4210854715202004e-14)"/>
  <path fill-rule="evenodd" d="M 299.132 212.666 C 295.531 208.174 290.13 205.177 283.83 205.177 L 281.73 205.177 L 281.73 204.878 L 210.621 204.878 C 196.535 204.628 184.914 215.829 184.668 229.891 L 184.668 276.024 C 184.668 281.416 180.168 285.759 174.467 285.759 C 173.267 285.759 172.067 285.509 170.866 285.011 C 173.267 286.707 175.967 287.557 178.967 287.557 L 283.68 287.557 C 294.181 287.557 302.882 279.02 302.882 268.385 L 302.882 224.35 C 302.782 219.856 301.481 215.962 298.982 212.666" clip-rule="evenodd" style="fill: rgb(207, 217, 11);" transform="matrix(1, 0, 0, 1, 0, 1.4210854715202004e-14)"/>
</svg>