<svg xmlns="http://www.w3.org/2000/svg" width="140" height="140" fill="none"><g fill-rule="evenodd" clip-path="url(#a)" clip-rule="evenodd"><path fill="#DDE4E3" d="M140 70A70 70 0 1 1 0 70a70 70 0 0 1 140 0"/><path fill="#2167AE" d="M69 71.6q2.5.6 4.9 0l.2-6q0-.7.5-1s1.8-1.5 3.6-2.2a16 16 0 0 1 4.4-.7q.5 0 .9.3l4.6 4.2a12 12 0 0 0 3.4-3.3l-4.3-4.5q-.4-.4-.3-1s.1-2.4.8-4.2a14 14 0 0 1 2.2-3.5q.4-.4 1-.4l6.3-.3a11 11 0 0 0 0-4.6l-6.4-.3q-.4 0-.9-.4s-1.5-1.7-2.2-3.5-.8-4.2-.8-4.3q0-.5.3-.9l4.3-4.5a12 12 0 0 0-3.4-3.3l-4.6 4.2q-.4.3-.9.3s-2.6 0-4.4-.8c-1.8-.6-3.6-2-3.6-2.1q-.5-.4-.5-1l-.2-6a12 12 0 0 0-4.8 0l-.2 6q0 .6-.5 1s-1.8 1.5-3.6 2.1a16 16 0 0 1-4.4.8q-.5 0-.9-.3l-4.6-4.2a12 12 0 0 0-3.4 3.3l4.3 4.5q.4.4.3.9c0 .1-.1 2.5-.8 4.3S53 43.6 53 43.7q-.4.4-1 .4l-6.3.3a11 11 0 0 0 0 4.6l6.4.3q.4 0 .9.4s1.5 1.7 2.2 3.5.8 4.2.8 4.3q0 .5-.3.9l-4.3 4.5a12 12 0 0 0 3.4 3.3l4.6-4.2q.4-.3.9-.3s2.6 0 4.4.7 3.6 2.2 3.6 2.2q.5.3.5 1zm2.5 2.7q-2 0-4-.5-.8-.3-.9-1.1l-.2-6.5q-.9-.7-2.5-1.5c-1-.3-2.4-.5-3-.5l-5 4.4q-.7.6-1.5.2a15 15 0 0 1-5.6-5.5q-.4-.8.2-1.4l4.6-4.8c0-.7-.3-2-.6-3q-.7-1.6-1.5-2.4l-6.7-.3q-.8 0-1.2-.9a14 14 0 0 1 0-7.6q.4-1 1.2-1l6.7-.2 1.5-2.4.6-3-4.6-4.8q-.5-.7-.2-1.4a14 14 0 0 1 5.6-5.5q.7-.3 1.5.2l5 4.4c.6 0 2-.2 3-.5q1.6-.7 2.5-1.5l.2-6.5q0-.9 1-1 3.9-1.2 7.9 0 .7.1.9 1l.2 6.5q.9.8 2.5 1.5c1 .3 2.4.5 3 .5l5-4.4q.7-.5 1.5-.2a15 15 0 0 1 5.6 5.5q.4.8-.2 1.4l-4.6 4.8c0 .7.3 2 .6 3q.8 1.6 1.5 2.4l6.7.3q.8 0 1.2.9a14 14 0 0 1 0 7.6q-.4 1-1.2 1l-6.7.2L90 54l-.6 3L94 62q.6.7.2 1.4a14 14 0 0 1-5.6 5.5q-.7.4-1.5-.2l-5-4.4c-.6 0-2 .2-3 .5q-1.6.7-2.5 1.5l-.2 6.5q0 .9-1 1-2 .6-3.9.6"/><path fill="#2167AE" d="m90.9 50.5 7.3-.3a13 13 0 0 0 0-7l-7.3-.3s-1.4-1.5-2-3.2c-.6-1.5-.8-3.9-.8-3.9l5-5.1a13 13 0 0 0-5.1-5l-5.4 4.8s-2.3 0-4-.7c-1.6-.6-3.2-2-3.2-2l-.3-7a14 14 0 0 0-7.2 0l-.3 7s-1.6 1.4-3.3 2-4 .7-4 .7L55 25.7a13 13 0 0 0-5 5l4.9 5.1s-.2 2.4-.8 4-2 3.1-2 3.1l-7.3.3a13 13 0 0 0 0 7l7.3.3s1.4 1.5 2 3.2c.6 1.5.8 3.9.8 3.9l-5 5.1a13 13 0 0 0 5.1 5l5.4-4.8s2.3 0 4 .7c1.6.6 3.2 2 3.2 2l.3 7a14 14 0 0 0 7.2 0l.3-7s1.6-1.4 3.3-2 4-.7 4-.7l5.3 4.8a13 13 0 0 0 5-5l-4.9-5.1s.2-2.4.8-4 2-3.1 2-3.1"/><path fill="#91BFE3" d="M71.5 40.4a6.4 6.4 0 0 0-6.5 6.3c0 3.5 3 6.3 6.5 6.3 3.6 0 6.5-2.8 6.5-6.3s-3-6.3-6.5-6.3m0 15c-5 0-9-3.9-9-8.7s4-8.8 9-8.8 9 4 9 8.8-4 8.8-9 8.8"/><path fill="#91BFE3" d="M71.5 54.2a7.7 7.7 0 0 1-7.8-7.5c0-4.2 3.5-7.5 7.8-7.5s7.8 3.3 7.8 7.5-3.5 7.5-7.8 7.5"/><path fill="#2167AE" d="M96.9 75.2c3.8-2 8.5-.7 10.7 2.9 2.4 3.8 1 8.7-2.9 10.9l-36.8 20.4-13.5-12.3z"/><path fill="#5495CF" d="M106 75.2 68.6 94.5q-2.2 1.1-4.4.4l-18.4-6.3 12.4-.6c4.6-.2 8.2-4 8.2-8.4s-3.6-8.1-8.2-8.4L-.3 69Q0 84.3 6.4 97.2l44.9 15.3a29 29 0 0 0 23.7-2l31.2-17.2a6.6 6.6 0 0 1 2.5-9.2 7 7 0 0 1 8.6 1.2c1-2.2 1-5-.5-7.2a8 8 0 0 0-10.7-3"/><path fill="#2167AE" d="M117.3 85.3a8 8 0 0 1-3.4 3.7l-7.7 4.3a6.6 6.6 0 0 1 2.5-9.2 7 7 0 0 1 8.6 1.2M58.1 74.3c3 0 5.5 2.4 5.5 5.3 0 3-2.5 5.3-5.5 5.3s-5.5-2.3-5.5-5.3 2.5-5.3 5.5-5.3"/></g><defs><clipPath id="a"><path fill="#fff" d="M0 0h140v140H0z"/></clipPath></defs></svg>