<svg xmlns="http://www.w3.org/2000/svg" width="140" height="140" fill="none"><path fill="#DDE4E3" fill-rule="evenodd" d="M140 70A70 70 0 1 1 0 70a70 70 0 0 1 140 0" clip-rule="evenodd"/><path fill="#5495CF" fill-rule="evenodd" d="M37 100.8V70a17 17 0 0 1 17.3-16.7h47.4v-1.7c0-7-5.7-12.8-12.8-12.8H63.6a16 16 0 0 0-14.8-7.3H37c-7 0-12.8 5.7-12.8 12.8v55c0 3.1 1.5 5.9 3.8 7.5q1.2.5 2.4.5c3.7 0 6.8-3 6.8-6.5" clip-rule="evenodd"/><path fill="#91BFE3" fill-rule="evenodd" d="M113.3 58.5c-2.4-3-6-5-10.2-5h-1.4v-.2H54.3A17 17 0 0 0 37 70v30.8c0 3.6-3 6.5-6.8 6.5q-1.2 0-2.4-.5 2.4 1.7 5.4 1.7H103c7 0 12.8-5.7 12.8-12.8V66.3q-.1-4.5-2.6-7.8" clip-rule="evenodd"/><path fill="#2167AE" fill-rule="evenodd" d="M102 104.7A61 61 0 0 0 97.8 94q-.7-.8-1.3-1.4l-.1-.1-.4-.3a9 9 0 0 0-5-2.1l-1.5-.1H70.5c-2.9 0-5.7 0-8.4 2.2l-.3.3h-.1l-2 2.4c-.7 1-1.8 4-3 7.4l-2.2 6.2h48.8z" clip-rule="evenodd"/><path fill="#2167AE" fill-rule="evenodd" d="M91.3 77.5a12.4 12.4 0 1 1-24.8 0 12.4 12.4 0 0 1 24.8 0" clip-rule="evenodd"/></svg>