<svg xmlns="http://www.w3.org/2000/svg" width="140" height="140" fill="none"><g fill-rule="evenodd" clip-path="url(#a)" clip-rule="evenodd"><path fill="#DDE4E3" d="M0 70a70 70 0 1 1 140 0A70 70 0 0 1 0 70"/><path fill="#5495CF" d="M112 93.7H28.3v-46c0-1.9.3-5.3 2.3-7.6q2.7-3 8.4-3h62.3q5.6 0 8.3 3c2 2.3 2.4 5.7 2.4 7.6zm4.4-45.2c0-2.3 0-7.4-3.4-11.3q-4-4.6-11.7-4.7H39q-7.9 0-11.8 4.7c-3.4 3.9-3.4 9-3.4 11.3v49.7h29v3.3h34.7v-3.3h29z"/><path fill="#ECEEEF" d="M112 93.7H28.3v-46c0-1.9.3-5.3 2.3-7.6q2.7-3 8.4-3h62.3q5.6 0 8.3 3c2 2.3 2.4 5.7 2.4 7.6z"/><path fill="#2167AE" d="M122.5 97H82.9q-1 .1-1.2 1.2c0 .2-.5 2.2-4.3 2.2H62.6c-3.3 0-4-2.1-4-2.3q-.3-1-1.3-1H17.5q-1.1.1-1.2 1.2c0 4.3 0 9.1 7.8 9.1h91.8c7.8 0 7.8-4.8 7.8-9q0-1.2-1.2-1.3"/><path fill="#5495CF" d="M72.9 46a14.4 14.4 0 0 0-11.6 24.1q3.1 3.6 3.4 8.2h14.6c.1-3 1.4-6 3.4-8.2A14.4 14.4 0 0 0 73 46"/><path fill="#2167AE" d="M79.2 81h-.5q.3 0 .5-.2l.4-.2a1.3 1.3 0 0 0-1-2.3H65.4q-.3 0-.6.2l-.3.2a1.3 1.3 0 0 0 1 2.3h-.6l-.4.4q-.4.3-.4.9.1 1.2 1.3 1.3h1.2a7.1 7.1 0 0 0 10.8 0h1.4a1.3 1.3 0 0 0 1.3-1.3q-.1-.9-.8-1.2"/><path fill="#91BFE3" d="M76.4 75q0 .7-.7.7a1 1 0 0 1-.7-.7q0-6.5 2.9-11.4-1.8 0-3.2-1a4 4 0 0 1-2.7 1q-1.5 0-2.8-1-1.3 1-3.1 1Q69 68.5 69 75q0 .7-.7.7a1 1 0 0 1-.7-.7q0-7.5-4-12.7a.7.7 0 0 1 1-.9q.6.8 1.8.8 1.5 0 2.3-1.1.2-.4.6-.3.3 0 .5.3.8 1 2.2 1.1 1.5 0 2.1-1.1l.6-.3q.4 0 .6.3.8 1 2.3 1.1 1.1 0 1.8-.8.4-.4 1 0 .4.4 0 1a20 20 0 0 0-4 12.6"/></g><defs><clipPath id="a"><path fill="#fff" d="M0 0h140v140H0z"/></clipPath></defs></svg>