<svg xmlns="http://www.w3.org/2000/svg" width="140" height="140" fill="none"><g fill-rule="evenodd" clip-path="url(#a)" clip-rule="evenodd"><path fill="#DDE4E3" d="M140 70A70 70 0 1 1 0 70a70 70 0 0 1 140 0"/><path fill="#ECEEEF" d="M99.8 68.3q-1-1.3-2.2-2.3l-.2-.2-.5-.5a14 14 0 0 0-8-3.3l-2.6-.2H55.5c-4.7 0-9.2-.1-13.6 3.5l-.6.5-.2.2A20 20 0 0 0 38 70c-1.3 1.9-3.5 28-5.8 34.9a55.3 55.3 0 0 0 74.8 1c-2.4-7.3-4.7-34-6-36z"/><path fill="#23366F" d="M89.2 35.5c0 11.7-8.9 21.3-19.8 21.3s-19.8-9.6-19.8-21.3 8.9-21.3 19.8-21.3 19.8 9.6 19.8 21.3"/><path fill="#2167AE" d="m80.3 61.9-1.6-7.3q-.6-2.2 1-3.9 1.5-1.4 2.3-3.3a28 28 0 0 0 1.9-11.7q0-1-.4-1.1-.3-.3-1-.3c-5.3 0-10-2.6-14.7-4.7-5-2.2-12.2.7-13 5.5 0 5.8.2 11.4 4.4 15.8q1.1 1.3.9 3l-1.8 8s3 7.8 11.1 7.8 11-7.8 11-7.8"/><path fill="#23366F" d="M62.8 100.7a17 17 0 0 0-3.2-3.9l-.2-.2-.5-.4a14 14 0 0 0-8-3.4l-2.6-.2H17.5c-4.3 0-8.6 0-12.7 2.9A70 70 0 0 0 68.9 140v-23.4a99 99 0 0 0-6-16"/><path fill="#2167AE" d="m134.7 96.8-.3-.2-.5-.4a14 14 0 0 0-8-3.4l-2.6-.2H92.5c-4.7 0-9.2-.1-13.6 3.6l-.6.4-.2.2a20 20 0 0 0-3.2 3.9c-1.3 1.9-3.5 8-5.8 14.8V140h.9a70 70 0 0 0 64.7-43.2"/><path fill="#23366F" d="M126.2 66.3c0 11.8-8.9 21.3-19.8 21.3S86.6 78 86.6 66.3c0-11.7 8.9-21.3 19.8-21.3s19.8 9.6 19.8 21.3"/><path fill="#5495CF" d="m117.3 92.7-1.6-7.3q-.5-2.2 1-3.9 1.5-1.4 2.3-3.3a28 28 0 0 0 1.9-11.7q0-1-.4-1.1-.3-.2-1-.2c-5.3 0-10-2.7-14.7-4.8-5-2.2-12.2.7-13 5.5 0 5.8.2 11.4 4.4 15.8q1.1 1.3.9 3l-1.8 8s3 7.8 11.1 7.8 11-7.8 11-7.8"/><path fill="#23366F" d="M51.2 66.3c0 11.8-8.9 21.3-19.8 21.3S11.6 78 11.6 66.3c0-11.7 8.9-21.3 19.8-21.3s19.8 9.6 19.8 21.3"/><path fill="#91BFE3" d="m42.3 92.7-1.6-7.3q-.5-2.2 1-3.9 1.4-1.4 2.3-3.3a28 28 0 0 0 1.9-11.7q0-1-.4-1.1-.3-.2-1-.2c-5.3 0-10-2.7-14.7-4.8-5-2.2-12.2.7-13 5.5 0 5.8.2 11.4 4.4 15.8q1.1 1.3.9 3l-1.8 8s3 7.8 11.1 7.8 11-7.8 11-7.8"/></g><defs><clipPath id="a"><path fill="#fff" d="M0 0h140v140H0z"/></clipPath></defs></svg>